HIERARCHY
ROOT hip
{
  OFFSET 0 0 0
  CHANNELS 6 Xposition Yposition Zposition Zrotation Yrotation Xrotation
  JOINT abdomen
  {
    OFFSET 0 20.6881 -0.73152
    CHANNELS 3 Zrotation Xrotation Yrotation
    JOINT chest
    {
      OFFSET 0 11.7043 -0.48768
      CHANNELS 3 Zrotation Xrotation Yrotation
      JOINT neck
      {
        OFFSET 0 22.1894 -2.19456
        CHANNELS 3 Zrotation Xrotation Yrotation
        JOINT head
        {
          OFFSET -0.24384 7.07133 1.2192
          CHANNELS 3 Zrotation Xrotation Yrotation
          JOINT leftEye
          {
            OFFSET 4.14528 8.04674 8.04672
            CHANNELS 3 Zrotation Xrotation Yrotation
            End Site
            {
              OFFSET 1 0 0
            }
          }
          JOINT rightEye
          {
            OFFSET -3.6576 8.04674 8.04672
            CHANNELS 3 Zrotation Xrotation Yrotation
            End Site
            {
              OFFSET 1 0 0
            }
          }
        }
      }
      JOINT rCollar
      {
        OFFSET -2.68224 19.2634 -4.8768
        CHANNELS 3 Zrotation Xrotation Yrotation
        JOINT rShldr
        {
          OFFSET -8.77824 -1.95073 1.46304
          CHANNELS 3 Zrotation Xrotation Yrotation
          JOINT rForeArm
          {
            OFFSET -28.1742 -1.7115 0.48768
            CHANNELS 3 Zrotation Xrotation Yrotation
            JOINT rHand
            {
              OFFSET -22.5879 0.773209 7.07136
              CHANNELS 3 Zrotation Xrotation Yrotation
              JOINT rThumb1
              {
                OFFSET -1.2192 -0.487915 3.41376
                CHANNELS 3 Zrotation Xrotation Yrotation
                JOINT rThumb2
                {
                  OFFSET -3.37035 -0.52449 3.41376
                  CHANNELS 3 Zrotation Xrotation Yrotation
                  End Site
                  {
                    OFFSET -1.78271 -1.18214 1.43049
                  }
                }
              }
              JOINT rIndex1
              {
                OFFSET -7.75947 0.938293 5.60832
                CHANNELS 3 Zrotation Xrotation Yrotation
                JOINT rIndex2
                {
                  OFFSET -2.54057 -0.884171 1.56538
                  CHANNELS 3 Zrotation Xrotation Yrotation
                  End Site
                  {
                    OFFSET -1.62519 -0.234802 1.16502
                  }
                }
              }
              JOINT rMid1
              {
                OFFSET -8.24714 1.18213 3.41376
                CHANNELS 3 Zrotation Xrotation Yrotation
                JOINT rMid2
                {
                  OFFSET -3.10165 -0.590103 1.0647
                  CHANNELS 3 Zrotation Xrotation Yrotation
                  End Site
                  {
                    OFFSET -2.48547 -0.328903 0.83742
                  }
                }
              }
              JOINT rRing1
              {
                OFFSET -8.82822 0.546677 1.51678
                CHANNELS 3 Zrotation Xrotation Yrotation
                JOINT rRing2
                {
                  OFFSET -2.60934 -0.819778 -0.0198488
                  CHANNELS 3 Zrotation Xrotation Yrotation
                  End Site
                  {
                    OFFSET -2.33842 -0.294052 0.168128
                  }
                }
              }
              JOINT rPinky1
              {
                OFFSET -8.27202 -0.0477905 -0.4584
                CHANNELS 3 Zrotation Xrotation Yrotation
                JOINT rPinky2
                {
                  OFFSET -1.82734 -0.647385 -0.700984
                  CHANNELS 3 Zrotation Xrotation Yrotation
                  End Site
                  {
                    OFFSET -1.69225 -0.51767 -0.607171
                  }
                }
              }
            }
          }
        }
      }
      JOINT lCollar
      {
        OFFSET 2.68224 19.2634 -4.8768
        CHANNELS 3 Zrotation Xrotation Yrotation
        JOINT lShldr
        {
          OFFSET 8.77824 -1.95073 1.46304
          CHANNELS 3 Zrotation Xrotation Yrotation
          JOINT lForeArm
          {
            OFFSET 28.1742 -1.7115 0.48768
            CHANNELS 3 Zrotation Xrotation Yrotation
            JOINT lHand
            {
              OFFSET 22.5879 0.773209 7.07136
              CHANNELS 3 Zrotation Xrotation Yrotation
              JOINT lThumb1
              {
                OFFSET 1.2192 -0.487915 3.41376
                CHANNELS 3 Zrotation Xrotation Yrotation
                JOINT lThumb2
                {
                  OFFSET 3.37035 -0.52449 3.41376
                  CHANNELS 3 Zrotation Xrotation Yrotation
                  End Site
                  {
                    OFFSET 1.78271 -1.18214 1.43049
                  }
                }
              }
              JOINT lIndex1
              {
                OFFSET 7.75947 0.938293 5.60832
                CHANNELS 3 Zrotation Xrotation Yrotation
                JOINT lIndex2
                {
                  OFFSET 2.54057 -0.884171 1.56538
                  CHANNELS 3 Zrotation Xrotation Yrotation
                  End Site
                  {
                    OFFSET 1.62519 -0.234802 1.16502
                  }
                }
              }
              JOINT lMid1
              {
                OFFSET 8.24714 1.18213 3.41376
                CHANNELS 3 Zrotation Xrotation Yrotation
                JOINT lMid2
                {
                  OFFSET 3.10165 -0.590103 1.0647
                  CHANNELS 3 Zrotation Xrotation Yrotation
                  End Site
                  {
                    OFFSET 2.48547 -0.328903 0.83742
                  }
                }
              }
              JOINT lRing1
              {
                OFFSET 8.82822 0.546677 1.51678
                CHANNELS 3 Zrotation Xrotation Yrotation
                JOINT lRing2
                {
                  OFFSET 2.60934 -0.819778 -0.0198488
                  CHANNELS 3 Zrotation Xrotation Yrotation
                  End Site
                  {
                    OFFSET 2.33842 -0.294052 0.168128
                  }
                }
              }
              JOINT lPinky1
              {
                OFFSET 8.27202 -0.0477905 -0.4584
                CHANNELS 3 Zrotation Xrotation Yrotation
                JOINT lPinky2
                {
                  OFFSET 1.82734 -0.647385 -0.700984
                  CHANNELS 3 Zrotation Xrotation Yrotation
                  End Site
                  {
                    OFFSET 1.69225 -0.51767 -0.607171
                  }
                }
              }
            }
          }
        }
      }
    }
  }
  JOINT rButtock
  {
    OFFSET -8.77824 4.35084 1.2192
    CHANNELS 3 Zrotation Xrotation Yrotation
    JOINT rThigh
    {
      OFFSET 0 -1.70687 -2.19456
      CHANNELS 3 Zrotation Xrotation Yrotation
      JOINT rShin
      {
        OFFSET 0 -36.8199 0.73152
        CHANNELS 3 Zrotation Xrotation Yrotation
        JOINT rFoot
        {
          OFFSET 0.73152 -45.1104 -5.12064
          CHANNELS 3 Zrotation Xrotation Yrotation
          End Site
          {
            OFFSET -1.1221 -3.69964 12.103
          }
        }
      }
    }
  }
  JOINT lButtock
  {
    OFFSET 8.77824 4.35084 1.2192
    CHANNELS 3 Zrotation Xrotation Yrotation
    JOINT lThigh
    {
      OFFSET 0 -1.70687 -2.19456
      CHANNELS 3 Zrotation Xrotation Yrotation
      JOINT lShin
      {
        OFFSET 0 -36.8199 0.73152
        CHANNELS 3 Zrotation Xrotation Yrotation
        JOINT lFoot
        {
          OFFSET -0.73152 -45.1104 -5.12064
          CHANNELS 3 Zrotation Xrotation Yrotation
          End Site
          {
            OFFSET 1.1221 -3.69964 12.103
          }
        }
      }
    }
  }
}
MOTION
Frames:	7
Frame Time:	0.03333
12.5977 78.1565 18.6249 -76.599843 84.55882 -71.33371 1.574562 -0.257562 -83.149701 5.952171 0.418084 90.326107 3.347147 14.804985 48.543897 -17.807546 -15.397523 -51.269956 -0.275872 0.022227 -9.212741 4.90151 0.868019 20.073405 -1.971477 18.491924 1.220612 69.553954 7.276266 15.287895 175.50046 6.94257 117.956225 171.621653 -15.051747 144.748492 -9.011247 14.243009 -0.62629 -169.944859 -56.490481 88.150698 -144.767099 6.59201 126.667902 -172.085731 -16.058848 126.528497 18.706806 -53.642411 3.786385 -22.173684 73.903265 6.333012 -8.715559 21.866712 1.786347 123.846393 -75.480829 90.249727 -153.253525 9.976315 -137.0768 -148.106122 6.635056 -127.022257 -6.229982 -51.376201 4.152622 89.905153 -10.919794 135.069341 1.582783 -0.396284 63.445043 -143.52841 -50.889326 -129.937127 -22.925006 -13.509321 -1.657354 160.862117 -70.264029 -127.951443 82.593843 32.917869 -62.687946 169.918567 -25.100606 -100.594712 126.467904 39.144871 -121.353906 -14.868895 -15.522611 7.323544 -8.898182 -1.199836 -0.372927 -9.347372 41.46649 4.84939 14.701607 -40.094986 21.286597 43.21984 -35.657918 23.315289 157.282132 79.345442 25.768476 172.915628 49.589138 -172.996161 -6.965572 -64.637021 -1.281546 -68.463047 36.302872 -158.528381 -159.192716 71.620995 -12.359586 -177.054042 31.789746 -173.077372 -36.321816 -66.657122 -101.309963 -171.170419 74.263321 68.118142
12.783 78.16969999999999 19.3031 -84.413864 84.433708 -79.047016 0.515996 -2.514701 -147.241063 0.250455 4.342108 154.949057 -5.947421 32.173563 -153.643197 10.198157 40.734236 152.156334 -0.685608 0.050029 -8.346852 6.953134 1.394914 22.661753 2.428259 -20.671078 -8.141973 -107.521814 -3.316156 -161.649779 7.832883 13.282812 -62.038442 169.427407 -20.260814 144.063435 -172.71269 -16.464501 94.161846 -171.485274 -13.03519 108.67426 -29.247975 41.486129 13.429622 -16.343408 15.917198 16.373536 3.820499 -23.887559 0.143944 -156.784764 -26.559522 166.277498 -155.254318 11.979752 -178.998818 163.67366 74.291145 -168.856959 54.370926 83.805948 -24.439491 -160.650034 23.798558 -150.953454 2.413972 -1.851328 -3.928213 87.410591 -13.727192 -175.495713 -1.261475 -8.955691 66.403004 -148.981522 -46.375314 -134.062226 173.75422 -18.011402 -85.786598 -58.851843 -68.206003 -42.052191 -0.024184 -9.109938 -9.761481 1.096841 37.443184 -2.128386 141.415022 16.567133 -132.256987 -2.500954 33.165583 -8.430846 134.893333 1.920338 -179.088499 152.750303 -22.821775 -173.43676 40.151616 -52.148364 48.542196 27.516681 -26.494127 3.480847 -1.355995 -4.322853 -6.767447 0.356784 -23.295783 2.024489 15.843745 54.009428 77.854467 -33.398567 -11.042333 -95.265758 166.826932 71.381898 10.952502 -161.87328 30.808154 42.134888 54.729527 30.361271 -76.883172 -138.673976 -28.812262 -22.384188
13.0596 77.9892 19.886200000000002 -70.91638 84.543636 -65.903133 0.885124 -0.631471 -115.024495 4.080009 4.212455 123.046674 -9.944012 15.502809 -27.070464 23.541859 -15.17861 31.466234 -0.837765 0.051034 -6.971771 7.093549 2.143149 33.585072 1.465735 -33.331548 -10.834705 -96.560858 -27.083664 -145.197985 22.300376 8.118715 -61.695589 175.921237 -0.445475 146.304211 9.862851 -5.113847 -5.750471 94.742591 -74.787509 21.817931 -9.713998 13.267763 -5.694111 134.734267 -51.527629 66.67819 -151.431657 29.808509 129.882709 -175.936698 -16.647664 123.009393 -9.910488 -10.900206 -5.811222 -141.192925 -35.686168 171.13516 -6.433846 8.795299 3.836138 3.206442 -12.117848 -1.680207 -0.135197 -10.092799 -2.458445 -86.311295 20.57782 5.055575 -179.319743 8.967902 -114.937743 -155.324578 -37.669876 -139.924299 105.084489 32.347219 -64.560375 142.75467 -23.338754 -78.87054 -7.608424 -20.285918 -2.552189 -174.724196 -53.464061 -100.022053 -32.052643 -52.160302 -5.609391 -171.620798 -29.125178 -135.20141 -4.43582 -1.660772 -0.004325 -11.058207 22.91436 5.292003 17.722531 -38.768143 22.036369 -173.01526 60.610592 139.972746 -94.803543 64.496626 -56.607576 123.501189 38.407559 -47.198565 -50.098351 9.829422 93.988156 178.890493 -10.024421 24.285716 1.602424 4.776339 0.786814 14.073026 -44.255371 169.10262 44.013777 -56.338599 146.848836 26.49933 -12.556236 89.864557
13.4024 77.873 20.3198 -59.016512 84.641297 -54.202263 0.7527 0.20228 -96.420769 5.816756 2.856828 103.754513 -7.958903 14.891705 -15.061532 17.278072 -20.217149 19.421492 0.172223 -0.010195 -6.775723 8.064848 1.948616 27.126072 -157.214703 -46.329674 173.754742 116.883662 44.492699 -145.240374 148.78346 -35.553738 100.280401 179.598535 11.53905 146.697738 164.573182 -38.499983 88.046905 -149.835714 15.527526 102.591457 -154.917733 -11.937048 128.653898 -167.404664 -11.315691 122.818527 -176.213528 -23.154716 143.399271 1.698186 -40.14605 7.305004 -139.551032 -48.121013 -152.517575 34.532624 48.204288 -28.475887 -110.194491 -46.093286 -99.944244 -106.040905 -42.487451 -106.949364 148.003958 25.979266 -149.439757 -111.146612 -9.085151 -146.852939 -146.989706 -18.890125 -113.689134 -171.646273 2.285777 -151.428479 -7.721577 -3.48382 0.684122 1.593284 -2.278441 4.091388 150.351744 -1.282154 -113.65302 4.865375 8.516139 8.354853 164.251451 -36.276834 -143.155793 19.436998 42.131985 -27.277686 -0.567772 2.447018 0.08304 149.628614 -21.172767 179.112369 143.554767 24.564083 147.224143 -6.736336 -21.137154 -3.908447 66.273735 24.436618 47.043527 -88.947624 13.396137 -174.738533 -43.299376 -41.72292 52.43621 -144.535334 -67.589853 -54.270753 26.005505 7.923009 17.177265 -28.456731 -38.108832 38.728257 69.656755 30.748447 90.502822 123.551321 30.305192 147.336663
13.7572 77.761 20.6253 -50.300714 84.415153 -45.558807 0.776248 -0.07047 -100.716508 5.11533 3.12897 107.234035 -12.110598 19.094822 -46.116106 30.709281 -8.478078 50.600098 -0.499497 0.035114 -8.042382 7.212234 1.40994 22.095413 -15.246506 46.053473 15.49282 52.130631 16.982913 44.795674 -13.566487 -25.781869 19.263621 -0.484731 1.372052 1.325548 -16.050239 20.810838 0.874148 102.885911 -59.452483 27.095268 -32.561257 36.168744 15.01602 -6.304971 21.347449 10.562084 -68.60614 58.067535 51.743663 13.685837 9.977949 13.830466 -13.247494 -26.553576 -15.287342 34.329106 -17.426199 1.797241 179.02784 78.018653 -142.138737 -137.719202 -22.068705 -127.269996 -7.174406 -55.833594 5.882468 -53.027821 -9.279053 51.709197 132.409091 19.533925 -131.659099 -28.317651 -45.625782 -23.209797 7.752633 12.9158 -1.829449 -69.017878 -71.403622 -6.558837 43.415058 32.687116 -26.078918 164.981353 -15.51418 -100.406782 149.676835 4.924688 -141.018655 67.769688 66.113819 -69.795701 0.512994 4.149646 0.041661 146.343483 -34.388705 176.938164 132.210501 -11.18721 135.738148 4.554916 -28.928617 -0.968698 102.405335 59.754279 57.869628 -144.573278 45.855414 -35.581688 -10.74429 50.428039 60.12186 -68.670049 22.894745 -19.483828 19.630266 5.152534 12.178389 -15.8989 -40.225979 -149.969079 -54.835304 -51.267019 2.370327 -119.207044 67.997377 -148.34165
14.078399999999998 77.7578 20.8578 -46.337335 84.191524 -41.595503 -3.714787 0.253522 88.450183 -5.570294 -6.715881 -82.89586 5.537834 31.034179 141.774998 -24.99208 32.950478 -134.091283 -1.287652 0.116923 -10.376373 5.361265 0.872959 18.483379 -148.413973 32.792856 152.526476 127.854395 -9.599235 136.175688 173.232205 -6.210139 114.049679 172.950359 -10.988781 145.755314 -16.909863 20.636249 1.04167 -116.301296 -26.853108 92.789647 -150.244385 -1.639869 124.797385 0.620236 3.894816 -7.470877 -3.006111 -15.358218 -0.83856 -36.845417 -85.516774 -77.052055 -153.796182 9.54015 -174.84263 -156.572596 -37.107471 -154.40562 -129.224445 -29.163822 -117.892054 -136.808424 9.22775 -136.141703 155.982039 1.498084 -158.001497 -117.364231 -14.04374 -173.387587 1.314551 -19.169062 -24.366217 8.383242 43.02153 -6.741414 176.581501 -21.693874 -90.60492 2.474487 -50.8889 -0.629128 -145.974045 -68.898244 -98.484486 74.737723 68.264731 -59.52084 158.228175 -21.957057 -145.761755 16.815573 47.965925 -20.929601 144.680379 -3.092544 176.800301 21.229031 73.504639 -28.056475 142.064576 21.421058 146.287244 107.245712 82.49846 -154.119778 -74.477477 50.320696 -58.245602 98.153286 19.660718 171.018002 56.373257 -39.468443 61.273927 -165.258812 -4.299597 -174.669891 -1.447354 2.889801 -3.948468 17.934841 -36.758314 10.646798 14.904833 65.122867 81.325808 -101.347522 63.67485 -2.840004
14.3435 77.8382 21.083 -45.887996 84.057083 -41.112449 1.368068 0.021331 -90.412384 5.308036 1.559391 96.231969 -13.393286 26.835604 -92.466023 35.935245 16.909167 89.989861 -1.30902 0.139945 -12.203871 3.594123 0.523104 16.556598 -158.973954 -43.293244 171.414114 123.55297 36.911794 -151.327026 -5.846932 18.952057 32.726295 -3.961928 10.126731 0.955207 -0.443362 3.002826 -4.821874 -124.655343 -37.386347 108.750286 -26.849746 34.663321 10.965776 -152.208524 -2.043463 104.553182 169.18866 -60.00146 138.179764 -177.77287 8.295095 147.584231 -132.986423 -47.691755 -144.988785 51.219977 52.416283 -38.652449 -157.157964 21.851848 -139.64296 -34.535815 -30.672194 -38.307245 159.322716 -87.47222 -179.940433 -104.071093 26.274993 93.620609 -25.414662 -23.856935 -32.423029 47.359122 76.034801 -37.167573 -9.759509 -1.303275 1.730325 124.216632 -4.225781 -102.807698 153.7007 -4.390466 -115.366533 1.025791 -10.624585 9.767717 14.481479 41.685853 -16.053616 166.612 6.172029 -144.684993 -2.160134 4.1618 -0.154094 150.596974 53.273558 -171.722944 146.087149 42.853724 151.144111 14.887372 -48.272279 24.094882 7.399371 -4.804753 -2.508479 -14.042442 -25.363384 -95.093658 -50.925145 1.319952 94.493489 146.502913 -16.003213 18.093215 156.191757 71.653684 20.519015 -159.3555 35.339464 57.429546 59.62101 23.378108 -155.178728 170.898886 0.031902 -94.250084
